<svg width="24" height="24" viewBox="0 0 24 24" fill="none" xmlns="http://www.w3.org/2000/svg">
<path d="M10.46 5.9999L11 5.4099V8.9999C11 9.26511 11.1054 9.51947 11.2929 9.707C11.4804 9.89454 11.7348 9.9999 12 9.9999C12.2652 9.9999 12.5196 9.89454 12.7071 9.707C12.8946 9.51947 13 9.26511 13 8.9999V5.4099L13.54 5.9599C13.6308 6.06242 13.7416 6.14521 13.8657 6.20313C13.9898 6.26105 14.1244 6.29287 14.2613 6.29662C14.3982 6.30037 14.5344 6.27597 14.6615 6.22493C14.7885 6.17389 14.9038 6.09729 15 5.9999C15.0937 5.90693 15.1681 5.79633 15.2189 5.67447C15.2697 5.55261 15.2958 5.42191 15.2958 5.2899C15.2958 5.15788 15.2697 5.02718 15.2189 4.90532C15.1681 4.78346 15.0937 4.67286 15 4.5799L12.71 2.2899C12.6149 2.19886 12.5028 2.12749 12.38 2.0799C12.1365 1.97988 11.8635 1.97988 11.62 2.0799C11.4972 2.12749 11.3851 2.19886 11.29 2.2899L9 4.5399C8.80639 4.7335 8.69762 4.99609 8.69762 5.2699C8.69762 5.5437 8.80639 5.80629 9 5.9999C9.19361 6.1935 9.4562 6.30227 9.73 6.30227C10.0038 6.30227 10.2664 6.1935 10.46 5.9999ZM12 11.9999C11.4067 11.9999 10.8266 12.1758 10.3333 12.5055C9.83994 12.8351 9.45542 13.3037 9.22836 13.8518C9.0013 14.4 8.94189 15.0032 9.05764 15.5852C9.1734 16.1671 9.45912 16.7017 9.87868 17.1212C10.2982 17.5408 10.8328 17.8265 11.4147 17.9423C11.9967 18.058 12.5999 17.9986 13.1481 17.7715C13.6962 17.5445 14.1648 17.16 14.4944 16.6666C14.8241 16.1733 15 15.5932 15 14.9999C15 14.2042 14.6839 13.4412 14.1213 12.8786C13.5587 12.316 12.7956 11.9999 12 11.9999ZM12 15.9999C11.8022 15.9999 11.6089 15.9412 11.4444 15.8314C11.28 15.7215 11.1518 15.5653 11.0761 15.3826C11.0004 15.1999 10.9806 14.9988 11.0192 14.8048C11.0578 14.6108 11.153 14.4326 11.2929 14.2928C11.4327 14.1529 11.6109 14.0577 11.8049 14.0191C11.9989 13.9805 12.2 14.0003 12.3827 14.076C12.5654 14.1517 12.7216 14.2799 12.8315 14.4443C12.9414 14.6088 13 14.8021 13 14.9999C13 15.2651 12.8946 15.5195 12.7071 15.707C12.5196 15.8945 12.2652 15.9999 12 15.9999ZM5 14.9999C5 15.1977 5.05865 15.391 5.16853 15.5555C5.27841 15.7199 5.43459 15.8481 5.61732 15.9238C5.80004 15.9995 6.00111 16.0193 6.19509 15.9807C6.38907 15.9421 6.56725 15.8469 6.70711 15.707C6.84696 15.5672 6.9422 15.389 6.98079 15.195C7.01937 15.001 6.99957 14.7999 6.92388 14.6172C6.84819 14.4345 6.72002 14.2783 6.55557 14.1684C6.39112 14.0585 6.19778 13.9999 6 13.9999C5.73478 13.9999 5.48043 14.1053 5.29289 14.2928C5.10536 14.4803 5 14.7347 5 14.9999ZM19 14.9999C19 14.8021 18.9414 14.6088 18.8315 14.4443C18.7216 14.2799 18.5654 14.1517 18.3827 14.076C18.2 14.0003 17.9989 13.9805 17.8049 14.0191C17.6109 14.0577 17.4327 14.1529 17.2929 14.2928C17.153 14.4326 17.0578 14.6108 17.0192 14.8048C16.9806 14.9988 17.0004 15.1999 17.0761 15.3826C17.1518 15.5653 17.28 15.7215 17.4444 15.8314C17.6089 15.9412 17.8022 15.9999 18 15.9999C18.2652 15.9999 18.5196 15.8945 18.7071 15.707C18.8946 15.5195 19 15.2651 19 14.9999ZM20 7.9999H16C15.7348 7.9999 15.4804 8.10525 15.2929 8.29279C15.1054 8.48033 15 8.73468 15 8.9999C15 9.26511 15.1054 9.51947 15.2929 9.707C15.4804 9.89454 15.7348 9.9999 16 9.9999H20C20.2652 9.9999 20.5196 10.1053 20.7071 10.2928C20.8946 10.4803 21 10.7347 21 10.9999V18.9999C21 19.2651 20.8946 19.5195 20.7071 19.707C20.5196 19.8945 20.2652 19.9999 20 19.9999H4C3.73478 19.9999 3.48043 19.8945 3.29289 19.707C3.10536 19.5195 3 19.2651 3 18.9999V10.9999C3 10.7347 3.10536 10.4803 3.29289 10.2928C3.48043 10.1053 3.73478 9.9999 4 9.9999H8C8.26522 9.9999 8.51957 9.89454 8.70711 9.707C8.89464 9.51947 9 9.26511 9 8.9999C9 8.73468 8.89464 8.48033 8.70711 8.29279C8.51957 8.10525 8.26522 7.9999 8 7.9999H4C3.20435 7.9999 2.44129 8.31597 1.87868 8.87858C1.31607 9.44118 1 10.2042 1 10.9999V18.9999C1 19.7955 1.31607 20.5586 1.87868 21.1212C2.44129 21.6838 3.20435 21.9999 4 21.9999H20C20.7956 21.9999 21.5587 21.6838 22.1213 21.1212C22.6839 20.5586 23 19.7955 23 18.9999V10.9999C23 10.2042 22.6839 9.44118 22.1213 8.87858C21.5587 8.31597 20.7956 7.9999 20 7.9999Z" fill="black"/>
</svg>
