<svg width="24" height="24" viewBox="0 0 24 24" fill="none" xmlns="http://www.w3.org/2000/svg">
<path d="M11.4401 2C8.87644 2.00731 6.41355 2.99891 4.56006 4.77V3C4.56006 2.73478 4.4547 2.48043 4.26717 2.29289C4.07963 2.10536 3.82528 2 3.56006 2C3.29484 2 3.04049 2.10536 2.85295 2.29289C2.66542 2.48043 2.56006 2.73478 2.56006 3V7.5C2.56006 7.76522 2.66542 8.01957 2.85295 8.20711C3.04049 8.39464 3.29484 8.5 3.56006 8.5H8.06006C8.32528 8.5 8.57963 8.39464 8.76717 8.20711C8.9547 8.01957 9.06006 7.76522 9.06006 7.5C9.06006 7.23478 8.9547 6.98043 8.76717 6.79289C8.57963 6.60536 8.32528 6.5 8.06006 6.5H5.66006C6.57177 5.53701 7.70856 4.81576 8.96819 4.40114C10.2278 3.98651 11.5707 3.89152 12.8762 4.1247C14.1816 4.35788 15.4086 4.91193 16.4468 5.73699C17.485 6.56205 18.3018 7.63226 18.8238 8.85133C19.3457 10.0704 19.5564 11.4001 19.4369 12.7208C19.3175 14.0415 18.8716 15.3118 18.1393 16.4174C17.4071 17.5231 16.4115 18.4293 15.2421 19.0547C14.0727 19.68 12.7662 20.0049 11.4401 20C11.1748 20 10.9205 20.1054 10.733 20.2929C10.5454 20.4804 10.4401 20.7348 10.4401 21C10.4401 21.2652 10.5454 21.5196 10.733 21.7071C10.9205 21.8946 11.1748 22 11.4401 22C14.0922 22 16.6358 20.9464 18.5111 19.0711C20.3865 17.1957 21.4401 14.6522 21.4401 12C21.4401 9.34784 20.3865 6.8043 18.5111 4.92893C16.6358 3.05357 14.0922 2 11.4401 2ZM11.4401 8C11.1748 8 10.9205 8.10536 10.733 8.29289C10.5454 8.48043 10.4401 8.73478 10.4401 9V12C10.4401 12.2652 10.5454 12.5196 10.733 12.7071C10.9205 12.8946 11.1748 13 11.4401 13H13.4401C13.7053 13 13.9596 12.8946 14.1472 12.7071C14.3347 12.5196 14.4401 12.2652 14.4401 12C14.4401 11.7348 14.3347 11.4804 14.1472 11.2929C13.9596 11.1054 13.7053 11 13.4401 11H12.4401V9C12.4401 8.73478 12.3347 8.48043 12.1472 8.29289C11.9596 8.10536 11.7053 8 11.4401 8Z" fill="black"/>
</svg>
