<svg width="20" height="20" viewBox="0 0 20 20" fill="none" xmlns="http://www.w3.org/2000/svg">
<path d="M10 9C9.80225 9 9.60891 9.05865 9.44446 9.16853C9.28001 9.27841 9.15184 9.43459 9.07615 9.61732C9.00047 9.80004 8.98066 10.0011 9.01925 10.1951C9.05783 10.3891 9.15307 10.5673 9.29293 10.7071C9.43278 10.847 9.61096 10.9422 9.80494 10.9808C9.99892 11.0194 10.2 10.9996 10.3827 10.9239C10.5654 10.8482 10.7216 10.72 10.8315 10.5556C10.9414 10.3911 11 10.1978 11 10C11 9.73478 10.8947 9.48043 10.7071 9.29289C10.5196 9.10536 10.2652 9 10 9ZM17.62 10L17.73 9.86C19.08 8 19.4 6.29 18.66 5C17.92 3.71 16.26 3.14 14 3.37H13.82C12.91 1.3 11.56 0 10 0C8.44003 0 7.09003 1.3 6.19003 3.4L6.00003 3.37C3.74003 3.14 2.08003 3.71 1.34003 5C0.600032 6.29 0.920032 8 2.27003 9.86L2.38003 10L2.27003 10.14C0.920032 12 0.600032 13.71 1.34003 15C2.00003 16.1 3.27003 16.68 5.00003 16.68C5.31003 16.68 5.63003 16.68 6.00003 16.63H6.18003C7.09003 18.7 8.44003 20 10 20C11.56 20 12.91 18.7 13.81 16.6H13.99C14.33 16.6 14.65 16.65 14.99 16.65C16.76 16.65 18.06 16.07 18.69 14.97C19.43 13.68 19.11 11.97 17.76 10.11L17.62 10ZM3.07003 6C3.32003 5.56 4.07003 5.32 5.07003 5.32H5.56003C5.40333 5.93517 5.28642 6.5598 5.21003 7.19C4.70058 7.57537 4.21626 7.99288 3.76003 8.44C3.00003 7.44 2.78003 6.5 3.07003 6ZM3.07003 14C2.78003 13.5 3.07003 12.56 3.74003 11.53C4.19626 11.9771 4.68058 12.3946 5.19003 12.78C5.26643 13.4135 5.38334 14.0415 5.54003 14.66C4.30003 14.74 3.36003 14.5 3.07003 14ZM10 2C10.56 2 11.23 2.66 11.8 3.83C11.1891 4.00731 10.5882 4.21762 10 4.46C9.41186 4.21762 8.81098 4.00731 8.20003 3.83C8.77003 2.66 9.44003 2 10 2ZM10 18C9.44003 18 8.77003 17.34 8.20003 16.17C8.81098 15.9927 9.41186 15.7824 10 15.54C10.5882 15.7824 11.1891 15.9927 11.8 16.17C11.23 17.34 10.56 18 10 18ZM12.93 11.69C12.47 12.01 12 12.31 11.5 12.6C11 12.89 10.5 13.15 10 13.38C9.50003 13.1467 9.00003 12.8867 8.50003 12.6C8.00003 12.31 7.50003 12.01 7.07003 11.69C7.00003 11.15 7.00003 10.59 7.00003 10C7.00003 9.41 7.00003 8.85 7.07003 8.31C7.53003 7.99 8.00003 7.69 8.50003 7.4C9.00003 7.11 9.50003 6.85 10 6.62C10.5 6.85333 11 7.11333 11.5 7.4C12 7.69 12.5 7.99 12.93 8.31C12.93 8.85 13 9.41 13 10C13 10.59 13 11.15 12.93 11.69ZM16.93 14C16.64 14.5 15.7 14.75 14.46 14.66C14.6167 14.0415 14.7336 13.4135 14.81 12.78C15.3195 12.3946 15.8038 11.9771 16.26 11.53C17 12.56 17.22 13.5 16.93 14ZM16.26 8.47C15.8038 8.02288 15.3195 7.60537 14.81 7.22C14.7336 6.5898 14.6167 5.96517 14.46 5.35H14.95C15.95 5.35 16.68 5.59 16.95 6.03C17.22 6.47 17 7.44 16.26 8.47Z" fill="black"/>
</svg>
